# xmcd
#
# Track frame offsets:
#	150
#	22820
#	57264
#	81084
#	124753
#	178446
#
# Disc length: 2712 seconds
#
# Revision: 1
# Processed by: cddbd v1.5.2PL0 Copyright (c) Steve Scherf et al.
# Submitted via: audiograbber 1.83.01
#
DISCID=480a9606
DTITLE=Justin Conn - Music?City Live
DYEAR=2008
DGENRE=Funk
TTITLE0=Southern Girls
TTITLE1=Alright Now
TTITLE2=Music?City
TTITLE3=Damn/19/Use Me
TTITLE4=Dirty
TTITLE5=Short Bus
EXTD=
EXTT0=
EXTT1=
EXTT2=
EXTT3=
EXTT4=
EXTT5=
PLAYORDER=
